OptimisticAI_Journey_v2 (Autosaved).glyphspackage
{
glyphname = numbersign;
layers = (
{
layerId = m001;
shapes = (
{
closed = 1;
nodes = (
(191,519,l),
(267,881,l),
(108,881,l),
(108,1056,l),
(304,1056,l),
(377,1400,l),
(573,1400,l),
(500,1056,l),
(821,1056,l),
(894,1400,l),
(1090,1400,l),
(1017,1056,l),
(1175,1056,l),
(1175,881,l),
(980,881,l),
(904,519,l),
(1063,519,l),
(1063,344,l),
(867,344,l),
(794,0,l),
(598,0,l),
(671,344,l),
(350,344,l),
(277,0,l),
(81,0,l),
(154,344,l),
(-5,344,l),
(-5,519,l)
);
},
{
closed = 1;
nodes = (
(463,881,l),
(387,519,l),
(708,519,l),
(784,881,l)
);
}
);
width = 1170;
}
);
unicode = 35;
}
{
glyphname = ampersand;
layers = (
{
layerId = m001;
shapes = (
{
closed = 1;
nodes = (
(50,548,o),
(196,749,o),
(331,795,q),
(272,870,o),
(228,985,o),
(228,1051,qs),
(228,1161,o),
(339,1328,o),
(535,1423,o),
(662,1423,qs),
(854,1423,o),
(1083,1243,o),
(1106,1073,q),
(883,1073,l),
(848,1233,o),
(670,1233,qs),
(572,1233,o),
(453,1131,o),
(453,1045,qs),
(453,1003,o),
(482,928,o),
(555,837,o),
(621,770,qs),
(964,424,l),
(1022,563,o),
(1022,764,q),
(1242,764,l),
(1242,619,o),
(1175,371,o),
(1113,274,q),
(1384,0,l),
(1101,0,l),
(981,122,l),
(897,52,o),
(686,-23,o),
(563,-23,qs),
(325,-23,o),
(50,207,o),
(50,412,qs)
);
},
{
closed = 1;
nodes = (
(274,308,o),
(437,163,o),
(575,163,qs),
(739,163,o),
(848,257,q),
(487,624,ls),
(457,655,o),
(432,681,q),
(274,614,o),
(274,432,qs)
);
}
);
width = 1369;
}
);
unicode = 38;
}
{
glyphname = hyphen;
layers = (
{
layerId = m001;
shapes = (
{
closed = 1;
nodes = (
(735,635,l),
(735,457,l),
(54,457,l),
(54,635,l)
);
}
);
width = 789;
}
);
unicode = 45;
}
{
glyphname = period;
layers = (
{
layerId = m001;
shapes = (
{
closed = 1;
nodes = (
(166,256,o),
(284,256,o),
(364,176,o),
(364,57,o),
(284,-23,o),
(166,-23,o),
(85,57,o),
(85,176,o)
);
}
);
width = 449;
}
);
unicode = 46;
}
{
glyphname = slash;
layers = (
{
layerId = m001;
shapes = (
{
closed = 1;
nodes = (
(628,1460,l),
(214,-230,l),
(4,-230,l),
(418,1460,l)
);
}
);
width = 632;
}
);
unicode = 47;
}
{
glyphname = three;
layers = (
{
layerId = m001;
shapes = (
{
closed = 1;
nodes = (
(857,558,o),
(700,702,o),
(559,702,qs),
(475,702,o),
(380,675,q),
(380,833,l),
(761,1217,l),
(132,1217,l),
(132,1400,l),
(1035,1400,l),
(1035,1243,l),
(652,863,l),
(782,856,o),
(976,743,o),
(1083,553,o),
(1083,430,qs),
(1083,292,o),
(959,88,o),
(733,-23,o),
(579,-23,qs),
(370,-23,o),
(115,184,o),
(90,374,q),
(317,374,l),
(353,162,o),
(580,162,qs),
(709,162,o),
(857,305,o),
(857,430,qs)
);
}
);
width = 1194;
}
);
unicode = 51;
}
{
glyphname = five;
layers = (
{
layerId = m001;
shapes = (
{
closed = 1;
nodes = (
(789,716,o),
(655,716,qs),
(496,716,o),
(403,613,q),
(189,613,l),
(239,1400,l),
(1083,1400,l),
(1083,1212,l),
(431,1212,l),
(405,809,l),
(531,900,o),
(704,900,qs),
(842,900,o),
(1047,785,o),
(1160,579,o),
(1160,440,qs),
(1160,223,o),
(896,-23,o),
(664,-23,qs),
(458,-23,o),
(201,176,o),
(169,366,q),
(396,366,l),
(441,162,o),
(661,162,qs),
(790,162,o),
(934,309,o),
(934,570,o)
);
}
);
width = 1265;
}
);
unicode = 53;
}
{
glyphname = six;
layers = (
{
layerId = m001;
shapes = (
{
closed = 1;
nodes = (
(65,927,o),
(199,1250,o),
(448,1423,o),
(622,1423,qs),
(808,1423,o),
(1059,1227,o),
(1097,1054,q),
(876,1054,l),
(818,1239,o),
(622,1239,qs),
(288,1239,o),
(288,701,q),
(347,800,o),
(546,905,o),
(666,905,qs),
(796,905,o),
(1001,789,o),
(1119,586,o),
(1119,454,qs),
(1119,312,o),
(991,97,o),
(764,-23,o),
(614,-23,qs),
(354,-23,o),
(65,357,o),
(65,700,qs)
);
},
{
closed = 1;
nodes = (
(326,324,o),
(489,161,o),
(614,161,qs),
(745,161,o),
(894,313,o),
(894,445,qs),
(894,570,o),
(744,722,o),
(613,722,qs),
(489,722,o),
(326,578,o),
(326,450,qs)
);
}
);
width = 1178;
}
);
unicode = 54;
}
{
glyphname = seven;
layers = (
{
layerId = m001;
shapes = (
{
closed = 1;
nodes = (
(1001,1400,l),
(1001,1221,l),
(436,0,l),
(193,0,l),
(781,1212,l),
(31,1212,l),
(31,1400,l)
);
}
);
width = 1032;
}
);
unicode = 55;
}
{
glyphname = semicolon;
layers = (
{
layerId = m001;
shapes = (
{
closed = 1;
nodes = (
(364,237,l),
(217,-330,l),
(40,-330,l),
(127,237,l)
);
},
{
closed = 1;
nodes = (
(166,1037,o),
(284,1037,o),
(364,957,o),
(364,838,o),
(284,758,o),
(166,758,o),
(85,838,o),
(85,957,o)
);
}
);
width = 449;
}
);
unicode = 59;
}
{
glyphname = less;
layers = (
{
layerId = m001;
shapes = (
{
closed = 1;
nodes = (
(1074,1240,l),
(1074,1032,l),
(293,696,l),
(1074,359,l),
(1074,160,l),
(96,598,l),
(96,800,l)
);
}
);
width = 1170;
}
);
unicode = 60;
}
{
glyphname = question;
layers = (
{
layerId = m001;
shapes = (
{
closed = 1;
nodes = (
(435,673,o),
(511,787,o),
(580,841,qs),
(641,890,ls),
(704,940,o),
(755,1044,o),
(755,1102,qs),
(755,1194,o),
(625,1293,o),
(519,1293,qs),
(407,1293,o),
(274,1178,o),
(261,1069,q),
(51,1069,l),
(59,1189,o),
(181,1377,o),
(389,1484,o),
(658,1484,o),
(863,1392,o),
(979,1225,o),
(979,1112,qs),
(979,1016,o),
(893,856,o),
(791,776,qs),
(720,721,ls),
(653,668,o),
(603,535,o),
(603,419,q),
(404,419,l),
(404,525,o)
);
},
{
closed = 1;
nodes = (
(446,256,o),
(564,256,o),
(644,176,o),
(644,57,o),
(564,-23,o),
(446,-23,o),
(365,57,o),
(365,176,o)
);
}
);
width = 1024;
}
);
unicode = 63;
}
{
glyphname = A;
layers = (
{
annotations = (
{
pos = (1160,1305);
type = Circle;
width = 30;
}
);
layerId = m001;
shapes = (
{
closed = 1;
nodes = (
(799,387,ls),
(1026,387,o),
(1120,523,o),
(1047,722,cs),
(837,1292,ls),
(806,1375,o),
(749,1411,o),
(661,1411,cs),
(658,1411,ls),
(570,1411,o),
(510,1375,o),
(481,1292,cs),
(21,0,l),
(245,0,l),
(681,1274,l),
(639,1274,l),
(837,678,ls),
(862,603,o),
(849,585,o),
(799,585,cs),
(607,585,ls),
(553,585,o),
(508,541,o),
(508,486,cs),
(508,431,o),
(553,387,o),
(607,387,cs)
);
},
{
closed = 1;
nodes = (
(1198,258,ls),
(1132,440,o),
(930,554,o),
(758,554,cs),
(627,554,ls),
(573,554,o),
(524,533,o),
(524,478,cs),
(524,423,o),
(553,387,o),
(607,387,cs),
(813,387,ls),
(916,387,o),
(957,318,o),
(994,214,cs),
(1069,2,l),
(1291,2,l)
);
}
);
width = 1320;
},
{
annotations = (
{
pos = (979,411);
type = Circle;
width = 114.59502;
}
);
associatedMasterId = m001;
layerId = "8ADCF208-919E-4B2D-82C3-3A020756B086";
name = Stroke;
shapes = (
{
attr = {
lineCapEnd = 2;
lineCapStart = "4";
strokeHeight = 198;
strokeWidth = 212;
};
closed = 0;
nodes = (
(133,0,l),
(581,1259,ls),
(596,1302,o),
(613,1312,o),
(658,1312,cs),
(661,1312,ls),
(706,1312,o),
(722,1301,o),
(738,1258,cs),
(930,733,ls),
(972,619,o),
(962,486,o),
(799,486,cs),
(519,486,l)
);
},
{
attr = {
lineCapEnd = "4";
lineCapStart = 2;
strokeHeight = 198;
strokeWidth = 212;
};
closed = 0;
nodes = (
(519,478,l),
(803,478,ls),
(933,478,o),
(1046,394,o),
(1092,259,cs),
(1180,2,l)
);
}
);
visible = 1;
width = 1320;
},
{
anchors = (
{
name = bottom;
pos = (661,-50);
},
{
name = ogonek;
pos = (1299,0);
},
{
name = top;
pos = (661,1440);
}
);
associatedMasterId = m001;
layerId = "D499F278-E36D-4D63-90EC-3A3249139B93";
name = Background;
shapes = (
{
closed = 1;
nodes = (
(1299,0,l),
(808,1400,l),
(512,1400,l),
(21,0,l),
(253,0,l),
(379,379,l),
(934,379,l),
(1060,0,l)
);
},
{
closed = 1;
nodes = (
(441,565,l),
(657,1214,l),
(872,565,l)
);
}
);
visible = 1;
width = 1320;
}
);
unicode = 65;
}
{
glyphname = D;
layers = (
{
layerId = m001;
shapes = (
{
attr = {
lineCapEnd = "2";
lineCapStart = "2";
strokeHeight = 198;
strokeWidth = 212;
};
closed = 1;
nodes = (
(1214,985,o),
(1044,1299,o),
(630,1299,cs),
(225,1299,ls),
(221,1299,o),
(219,1297,o),
(219,1293,cs),
(219,108,ls),
(219,104,o),
(221,102,o),
(225,102,cs),
(630,102,ls),
(1032,102,o),
(1214,419,o),
(1214,698,cs)
);
}
);
width = 1380;
},
{
associatedMasterId = m001;
layerId = "C5833929-E5E0-4655-8C77-AD2DFED57BEF";
name = Stroke;
shapes = (
{
attr = {
lineCapEnd = "2";
lineCapStart = "2";
strokeHeight = 198;
strokeWidth = 212;
};
closed = 1;
nodes = (
(1214,985,o),
(1044,1299,o),
(630,1299,cs),
(225,1299,ls),
(221,1299,o),
(219,1297,o),
(219,1293,cs),
(219,108,ls),
(219,104,o),
(221,102,o),
(225,102,cs),
(630,102,ls),
(1032,102,o),
(1214,419,o),
(1214,698,cs)
);
}
);
visible = 1;
width = 1380;
},
{
associatedMasterId = m001;
layerId = "1B96F6BD-EEFA-4BDF-B60D-F61DC705DFE4";
name = Background;
shapes = (
{
closed = 1;
nodes = (
(617,0,ls),
(835,0,o),
(1149,179,o),
(1319,495,o),
(1319,905,o),
(1149,1221,o),
(835,1400,o),
(617,1400,qs),
(114,1400,l),
(114,0,l)
);
},
{
closed = 1;
nodes = (
(974,323,o),
(763,199,o),
(616,199,qs),
(337,199,l),
(337,1201,l),
(616,1201,ls),
(763,1201,o),
(974,1077,o),
(1088,852,o),
(1088,549,o)
);
},
{
closed = 1;
nodes = (
(617,0,ls),
(835,0,o),
(1149,179,o),
(1319,495,o),
(1319,905,o),
(1149,1221,o),
(835,1400,o),
(617,1400,qs),
(114,1400,l),
(114,0,l)
);
},
{
closed = 1;
nodes = (
(974,323,o),
(763,199,o),
(616,199,qs),
(337,199,l),
(337,1201,l),
(616,1201,ls),
(763,1201,o),
(974,1077,o),
(1088,852,o),
(1088,549,o)
);
}
);
visible = 1;
width = 1380;
}
);
unicode = 68;
}
{
glyphname = N;
layers = (
{
layerId = m001;
shapes = (
{
attr = {
strokeHeight = 198;
strokeWidth = 212;
};
closed = 0;
nodes = (
(221,0,l),
(221,1276,ls),
(221,1299,o),
(234,1321,o),
(256,1321,cs),
(264,1321,ls),
(283,1321,o),
(296,1313,o),
(306,1298,cs),
(1076,102,ls),
(1085,87,o),
(1099,79,o),
(1118,79,cs),
(1126,79,ls),
(1148,79,o),
(1161,101,o),
(1161,124,cs),
(1161,1400,l)
);
}
);
width = 1382;
},
{
associatedMasterId = m001;
layerId = "E75FFEF7-E077-4F9D-8FEF-B69A56377711";
name = Stroke;
shapes = (
{
attr = {
strokeHeight = 198;
strokeWidth = 212;
};
closed = 0;
nodes = (
(221,0,l),
(221,1286,ls),
(221,1309,o),
(234,1321,o),
(256,1321,cs),
(268,1321,ls),
(287,1321,o),
(300,1313,o),
(310,1298,cs),
(1072,102,ls),
(1081,87,o),
(1095,79,o),
(1114,79,cs),
(1126,79,ls),
(1148,79,o),
(1161,91,o),
(1161,114,cs),
(1161,1400,l)
);
}
);
visible = 1;
width = 1382;
},
{
associatedMasterId = m001;
layerId = "07DFAB42-1437-4DCE-BB32-4483752F347F";
name = Backgournd;
shapes = (
{
closed = 1;
nodes = (
(330,0,l),
(330,1098,l),
(1018,0,l),
(1267,0,l),
(1267,1400,l),
(1052,1400,l),
(1052,306,l),
(366,1400,l),
(114,1400,l),
(114,0,l)
);
}
);
visible = 1;
width = 1382;
}
);
unicode = 78;
}
{
glyphname = O;
layers = (
{
layerId = m001;
shapes = (
{
attr = {
strokeHeight = 198;
strokeWidth = 212;
};
closed = 1;
nodes = (
(409,76,o),
(170,278,o),
(170,700,cs),
(170,1104,o),
(400,1328,o),
(735,1328,cs),
(1070,1328,o),
(1299,1104,o),
(1299,700,cs),
(1299,278,o),
(1061,76,o),
(735,76,cs)
);
}
);
width = 1469;
},
{
associatedMasterId = m001;
layerId = "A6C1FE48-6F63-44E2-9A00-946BAE567A32";
name = Stroke;
shapes = (
{
attr = {
strokeHeight = 198;
strokeWidth = 212;
};
closed = 1;
nodes = (
(409,76,o),
(170,278,o),
(170,700,cs),
(170,1104,o),
(400,1328,o),
(735,1328,cs),
(1070,1328,o),
(1299,1104,o),
(1299,700,cs),
(1299,278,o),
(1061,76,o),
(735,76,cs)
);
}
);
visible = 1;
width = 1469;
},
{
associatedMasterId = m001;
layerId = "F5F9BD91-E624-45DE-B9B0-92AF4AF51C27";
name = Background;
shapes = (
{
closed = 1;
nodes = (
(223,163,o),
(526,-23,o),
(944,-23,o),
(1246,163,o),
(1408,489,o),
(1408,911,o),
(1246,1237,o),
(944,1423,o),
(526,1423,o),
(223,1237,o),
(61,911,o),
(61,489,o)
);
},
{
closed = 1;
nodes = (
(599,1232,o),
(871,1232,o),
(1070,1101,o),
(1178,863,o),
(1178,538,o),
(1070,299,o),
(871,168,o),
(599,168,o),
(400,299,o),
(291,538,o),
(291,863,o),
(400,1101,o)
);
}
);
visible = 1;
width = 1469;
}
);
unicode = 79;
}
{
glyphname = Q;
layers = (
{
layerId = m001;
shapes = (
{
attr = {
lineCapEnd = "2";
lineCapStart = "2";
strokeHeight = 198;
strokeWidth = 212;
};
closed = 0;
nodes = (
(789,621,l),
(1286,-266,l)
);
},
{
attr = {
lineCapEnd = "2";
lineCapStart = "2";
strokeHeight = 198;
strokeWidth = 212;
};
closed = 0;
nodes = (
(1287,-266,l),
(1162,-47,ls),
(1099,64,o),
(1086,163,o),
(1175,277,cs),
(1251,374,o),
(1299,534,o),
(1299,700,cs),
(1299,1104,o),
(1070,1328,o),
(735,1328,cs),
(400,1328,o),
(167,1104,o),
(167,700,cs),
(167,342,o),
(382,76,o),
(677,76,cs),
(803,76,o),
(888,136,o),
(923,227,cs),
(960,323,o),
(898,431,o),
(789,620,c)
);
}
);
width = 1469;
},
{
associatedMasterId = m001;
layerId = "48E21EAD-8C66-42DB-9D14-99CD4826A865";
name = Stroke;
shapes = (
{
attr = {
lineCapEnd = 2;
lineCapStart = 2;
strokeHeight = 198;
strokeWidth = 212;
};
closed = 0;
nodes = (
(789,621,l),
(1286,-266,l)
);
},
{
attr = {
lineCapEnd = "2";
lineCapStart = "2";
strokeHeight = 198;
strokeWidth = 212;
};
closed = 0;
nodes = (
(1287,-266,l),
(1162,-47,ls),
(1099,64,o),
(1086,163,o),
(1175,277,cs),
(1251,374,o),
(1299,534,o),
(1299,700,cs),
(1299,1104,o),
(1070,1328,o),
(735,1328,cs),
(400,1328,o),
(167,1104,o),
(167,700,cs),
(167,342,o),
(382,76,o),
(677,76,cs),
(803,76,o),
(888,136,o),
(923,227,cs),
(960,323,o),
(898,431,o),
(789,620,c)
);
}
);
visible = 1;
width = 1469;
},
{
associatedMasterId = m001;
layerId = "CE301F87-0504-4B1D-8788-F364AD2EA9EB";
name = Background;
shapes = (
{
closed = 1;
nodes = (
(223,163,o),
(526,-23,o),
(735,-23,qs),
(866,-23,o),
(978,16,q),
(1150,-224,l),
(1394,-224,l),
(1146,105,l),
(1272,200,o),
(1408,508,o),
(1408,700,qs),
(1408,911,o),
(1246,1237,o),
(944,1423,o),
(526,1423,o),
(223,1237,o),
(61,911,o),
(61,489,o)
);
},
{
closed = 1;
nodes = (
(599,1232,o),
(871,1232,o),
(1070,1101,o),
(1178,863,o),
(1178,538,o),
(1070,299,o),
(871,168,o),
(599,168,o),
(400,299,o),
(291,538,o),
(291,863,o),
(400,1101,o)
);
}
);
visible = 1;
width = 1469;
}
);
unicode = 81;
}
{
glyphname = V;
layers = (
{
layerId = m001;
shapes = (
{
attr = {
lineCapEnd = "4";
lineCapStart = "4";
strokeHeight = 198;
strokeWidth = 212;
};
closed = 0;
nodes = (
(132,1401,l),
(565,132,ls),
(580,89,o),
(597,79,o),
(642,79,cs),
(652,79,ls),
(697,79,o),
(714,89,o),
(729,132,cs),
(1162,1401,l)
);
}
);
width = 1294;
},
{
associatedMasterId = m001;
layerId = "AB3893B2-3CE6-41D7-9B93-96A1CFCE553F";
name = Stroke;
shapes = (
{
attr = {
lineCapEnd = "4";
lineCapStart = "4";
strokeHeight = 198;
strokeWidth = 212;
};
closed = 0;
nodes = (
(132,1401,l),
(565,132,ls),
(580,89,o),
(597,79,o),
(642,79,cs),
(652,79,ls),
(697,79,o),
(714,89,o),
(729,132,cs),
(1162,1401,l)
);
}
);
visible = 1;
width = 1294;
},
{
associatedMasterId = m001;
layerId = "31AF1252-3E4C-48B7-BFE2-CF3826A1C8A6";
name = Background;
shapes = (
{
closed = 1;
nodes = (
(21,1400,l),
(491,0,l),
(803,0,l),
(1273,1400,l),
(1031,1400,l),
(648,190,l),
(266,1400,l)
);
}
);
visible = 1;
width = 1294;
}
);
unicode = 86;
}
{
glyphname = X;
layers = (
{
layerId = m001;
shapes = (
{
attr = {
lineCapEnd = "2";
lineCapStart = "4";
strokeHeight = 198;
strokeWidth = 212;
};
closed = 0;
nodes = (
(162,1400,l),
(538,831,ls),
(596,743,o),
(597,664,o),
(538,579,cs),
(130,-2,l)
);
},
{
attr = {
lineCapEnd = "2";
lineCapStart = "2";
strokeHeight = 198;
strokeWidth = 212;
};
closed = 0;
nodes = (
(131,-2,l),
(1118,1404,l)
);
},
{
attr = {
lineCapEnd = "4";
lineCapStart = "2";
strokeHeight = 198;
strokeWidth = 212;
};
closed = 0;
nodes = (
(1117,1404,l),
(727,849,ls),
(667,765,o),
(669,686,o),
(725,598,cs),
(1105,0,l)
);
}
);
width = 1266;
},
{
associatedMasterId = m001;
layerId = "FC2A6EC6-01BF-4441-8D68-1FA1B92D6BBB";
name = Stroke;
shapes = (
{
attr = {
lineCapEnd = 2;
lineCapStart = 4;
strokeHeight = 198;
strokeWidth = 212;
};
closed = 0;
nodes = (
(162,1400,l),
(538,831,ls),
(596,743,o),
(597,664,o),
(538,579,cs),
(130,-2,l)
);
},
{
attr = {
lineCapEnd = 2;
lineCapStart = 2;
strokeHeight = 198;
strokeWidth = 212;
};
closed = 0;
nodes = (
(131,-2,l),
(1118,1404,l)
);
},
{
attr = {
lineCapEnd = 4;
lineCapStart = 2;
strokeHeight = 198;
strokeWidth = 212;
};
closed = 0;
nodes = (
(1117,1404,l),
(727,849,ls),
(667,765,o),
(669,686,o),
(725,598,cs),
(1105,0,l)
);
}
);
visible = 1;
width = 1266;
},
{
associatedMasterId = m001;
layerId = "C823528A-A328-432C-9C59-143E62A1C1DB";
name = Background;
shapes = (
{
closed = 1;
nodes = (
(281,1400,l),
(24,1400,l),
(488,703,l),
(18,0,l),
(262,0,l),
(627,565,l),
(991,0,l),
(1248,0,l),
(775,704,l),
(1243,1400,l),
(998,1400,l),
(640,844,l)
);
}
);
visible = 1;
width = 1266;
}
);
unicode = 88;
}
{
glyphname = Y;
layers = (
{
layerId = m001;
shapes = (
{
attr = {
lineCapEnd = "2";
lineCapStart = "4";
strokeHeight = 198;
strokeWidth = 212;
};
closed = 0;
nodes = (
(159,1400,l),
(528,739,ls),
(591,628,o),
(677,627,o),
(743,735,cs),
(1150,1401,l)
);
},
{
attr = {
lineCapEnd = "4";
lineCapStart = "2";
strokeHeight = 198;
strokeWidth = 212;
};
closed = 0;
nodes = (
(1151,1401,l),
(730,711,ls),
(681,630,o),
(644,571,o),
(644,483,cs),
(644,0,l)
);
}
);
width = 1283;
},
{
associatedMasterId = m001;
layerId = "83DE53A0-5334-461E-9CEA-BAC082A1F73F";
name = Stroke;
shapes = (
{
attr = {
lineCapEnd = "2";
lineCapStart = "4";
strokeHeight = 198;
strokeWidth = 212;
};
closed = 0;
nodes = (
(159,1400,l),
(528,739,ls),
(591,628,o),
(677,627,o),
(743,735,cs),
(1150,1401,l)
);
},
{
attr = {
lineCapEnd = "4";
lineCapStart = "2";
strokeHeight = 198;
strokeWidth = 212;
};
closed = 0;
nodes = (
(1151,1401,l),
(730,711,ls),
(681,630,o),
(644,571,o),
(644,483,cs),
(644,0,l)
);
}
);
visible = 1;
width = 1283;
},
{
associatedMasterId = m001;
layerId = "A0D9E307-AB4B-40CB-ABC6-4FDDBD3353C9";
name = Background;
shapes = (
{
closed = 1;
nodes = (
(753,0,l),
(753,552,l),
(1264,1400,l),
(1023,1400,l),
(645,749,l),
(267,1400,l),
(19,1400,l),
(530,552,l),
(530,0,l)
);
}
);
visible = 1;
width = 1283;
}
);
unicode = 89;
}
{
glyphname = backslash;
layers = (
{
layerId = m001;
shapes = (
{
closed = 1;
nodes = (
(214,1460,l),
(628,-230,l),
(418,-230,l),
(4,1460,l)
);
}
);
width = 632;
}
);
unicode = 92;
}
{
glyphname = underscore;
layers = (
{
layerId = m001;
shapes = (
{
closed = 1;
nodes = (
(1000,-72,l),
(1000,-214,l),
(0,-214,l),
(0,-72,l)
);
}
);
width = 1000;
}
);
unicode = 95;
}
{
glyphname = a;
layers = (
{
layerId = m001;
shapes = (
{
closed = 1;
nodes = (
(951,571,ls),
(951,874,o),
(800,1044,o),
(529,1044,cs),
(211,1044,o),
(15,790,o),
(15,436,cs),
(15,150,o),
(192,-21,o),
(419,-21,cs),
(737,-21,o),
(825,280,o),
(825,571,c),
(755,571,l),
(736,367,o),
(631,148,o),
(444,148,cs),
(323,148,o),
(211,256,o),
(211,436,cs),
(211,701,o),
(333,864,o),
(529,864,cs),
(683,864,o),
(755,779,o),
(755,571,cs),
(754,0,l),
(950,0,l)
);
}
);
width = 1035;
},
{
annotations = (
{
pos = (685,158);
type = Circle;
width = 120.11775;
}
);
associatedMasterId = m001;
layerId = "0F588242-990A-48B0-BA0A-3D1B6917185D";
name = Stroke;
shapes = (
{
attr = {
strokeHeight = 180;
strokeWidth = 196;
};
closed = 0;
nodes = (
(853,571,ls),
(853,320,o),
(682,69,o),
(419,69,cs),
(244,69,o),
(113,204,o),
(113,436,cs),
(113,744,o),
(271,954,o),
(529,954,cs),
(742,954,o),
(853,827,o),
(853,571,cs),
(852,0,l)
);
}
);
visible = 1;
width = 1035;
},
{
associatedMasterId = m001;
layerId = "E38E009D-258D-4BF1-ACF7-79718381C4BF";
name = Stroke2;
shapes = (
{
attr = {
strokeHeight = 160;
strokeWidth = 188;
};
closed = 0;
nodes = (
(191,754,l),
(258,879,o),
(368,949,o),
(516,949,cs),
(676,949,o),
(824,838,o),
(824,638,cs),
(824,387,o),
(665,58,o),
(398,58,cs),
(272,58,o),
(157,153,o),
(158,290,cs),
(158,383,o),
(228,532,o),
(449,532,cs),
(725,532,o),
(847,319,o),
(847,143,cs),
(847,-1,l)
);
}
);
width = 1035;
},
{
associatedMasterId = m001;
layerId = "75B3530D-1F03-4C74-B20A-16426E2BC50A";
name = Background;
shapes = (
{
closed = 1;
nodes = (
(64,440,o),
(291,609,o),
(494,609,qs),
(730,609,l),
(730,611,ls),
(730,739,o),
(620,858,o),
(506,858,qs),
(323,858,o),
(292,723,q),
(84,723,l),
(106,869,o),
(332,1037,o),
(510,1037,qs),
(719,1037,o),
(940,822,o),
(940,613,qs),
(940,0,l),
(738,0,l),
(738,150,l),
(686,62,o),
(513,-23,o),
(398,-23,qs),
(243,-23,o),
(64,143,o),
(64,285,qs)
);
},
{
closed = 1;
nodes = (
(274,150,o),
(454,150,qs),
(573,150,o),
(730,288,o),
(730,413,qs),
(730,457,l),
(510,457,ls),
(274,457,o),
(274,295,qs)
);
}
);
visible = 1;
width = 1035;
}
);
unicode = 97;
}
{
glyphname = d;
layers = (
{
layerId = m001;
shapes = (
{
attr = {
strokeHeight = 180;
strokeWidth = 196;
};
closed = 0;
nodes = (
(952,1460,l),
(952,675,ls),
(952,328,o),
(774,69,o),
(533,69,cs),
(306,69,o),
(144,222,o),
(144,515,cs),
(144,775,o),
(330,954,o),
(533,954,cs),
(801,954,o),
(951,778,o),
(951,551,cs),
(951,0,l)
);
}
);
width = 1148;
},
{
annotations = (
{
pos = (778,896);
type = Circle;
width = 109.42164;
}
);
associatedMasterId = m001;
layerId = "FED0414B-9D7F-45F0-8E3A-2EED7D8997C1";
name = Stroke;
shapes = (
{
attr = {
strokeHeight = 180;
strokeWidth = 196;
};
closed = 0;
nodes = (
(952,1460,l),
(952,675,ls),
(952,328,o),
(774,69,o),
(533,69,cs),
(306,69,o),
(144,222,o),
(144,515,cs),
(144,775,o),
(330,954,o),
(533,954,cs),
(801,954,o),
(951,778,o),
(951,551,cs),
(951,0,l)
);
}
);
visible = 1;
width = 1148;
},
{
associatedMasterId = m001;
layerId = "B02B2775-ACDD-4924-90A5-594DD96DCE1D";
name = Background;
shapes = (
{
closed = 1;
nodes = (
(165,905,o),
(367,1037,o),
(504,1037,qs),
(620,1037,o),
(790,941,o),
(837,864,q),
(837,1460,l),
(1049,1460,l),
(1049,0,l),
(843,0,l),
(843,161,l),
(799,81,o),
(620,-23,o),
(505,-23,qs),
(367,-23,o),
(165,108,o),
(55,346,o),
(55,667,o)
);
},
{
closed = 1;
nodes = (
(691,852,o),
(424,852,o),
(273,669,o),
(273,345,o),
(424,162,o),
(691,162,o),
(841,345,o),
(841,669,o)
);
}
);
visible = 1;
width = 1148;
}
);
unicode = 100;
}
{
glyphname = e;
layers = (
{
layerId = m001;
shapes = (
{
attr = {
lineCapEnd = "4";
strokeHeight = 180;
strokeWidth = 196;
};
closed = 0;
nodes = (
(891,288,ls),
(838,173,o),
(725,66,o),
(560,66,cs),
(318,66,o),
(151,211,o),
(151,506,cs),
(151,799,o),
(332,949,o),
(560,949,cs),
(779,949,o),
(907,779,o),
(907,596,cs),
(907,555,o),
(898,521,o),
(858,521,cs),
(377,521,l)
);
}
);
width = 1074;
},
{
associatedMasterId = m001;
layerId = "57C0B40D-9F66-45FE-AB36-CD6096828EE8";
name = Stroke;
shapes = (
{
attr = {
lineCapEnd = "4";
strokeHeight = 180;
strokeWidth = 196;
};
closed = 0;
nodes = (
(901,297,ls),
(840,167,o),
(741,66,o),
(576,66,cs),
(334,66,o),
(152,211,o),
(152,506,cs),
(152,799,o),
(332,949,o),
(560,949,cs),
(779,949,o),
(907,780,o),
(907,597,cs),
(907,556,o),
(898,521,o),
(858,521,cs),
(367,521,l)
);
}
);
visible = 1;
width = 1074;
},
{
associatedMasterId = m001;
layerId = "4D645DE3-C16B-4C00-9D94-6B0DAB166B51";
name = Background;
shapes = (
{
closed = 1;
nodes = (
(175,904,o),
(393,1037,o),
(686,1037,o),
(902,904,o),
(1020,661,o),
(1020,495,qs),
(1020,442,l),
(267,442,l),
(281,306,o),
(424,157,o),
(540,157,qs),
(734,157,o),
(786,311,q),
(993,311,l),
(958,155,o),
(714,-23,o),
(536,-23,qs),
(391,-23,o),
(175,109,o),
(55,347,o),
(55,666,o)
);
},
{
closed = 1;
nodes = (
(654,859,o),
(541,859,qs),
(430,859,o),
(288,720,o),
(269,598,q),
(809,598,l),
(796,718,o)
);
}
);
visible = 1;
width = 1074;
}
);
unicode = 101;
}
{
glyphname = f;
layers = (
{
layerId = m001;
shapes = (
{
attr = {
lineCapStart = "2";
strokeHeight = 180;
strokeWidth = 196;
};
closed = 0;
nodes = (
(687,921,l),
(469,921,ls),
(382,921,o),
(324,852,o),
(324,767,cs),
(324,3,ls)
);
},
{
attr = {
lineCapEnd = "2";
lineCapStart = "2";
strokeHeight = 180;
strokeWidth = 196;
};
closed = 0;
nodes = (
(687,922,l),
(27,922,ls)
);
},
{
attr = {
lineCapStart = "2";
strokeHeight = 180;
strokeWidth = 196;
};
closed = 0;
nodes = (
(27,923,l),
(179,923,ls),
(270,923,o),
(324,990,o),
(324,1077,cs),
(324,1143,ls),
(324,1278,o),
(393,1392,o),
(572,1392,cs),
(687,1392,l)
);
}
);
width = 722;
},
{
associatedMasterId = m001;
layerId = "EA6CEE42-F2F9-41C1-BD77-52EF68A11EC2";
name = Stroke;
shapes = (
{
attr = {
lineCapStart = 2;
strokeHeight = 180;
strokeWidth = 196;
};
closed = 0;
nodes = (
(682,942,l),
(469,942,ls),
(382,942,o),
(324,873,o),
(324,788,cs),
(324,3,ls)
);
},
{
attr = {
lineCapEnd = 2;
lineCapStart = 2;
strokeHeight = 180;
strokeWidth = 196;
};
closed = 0;
nodes = (
(682,943,l),
(17,943,ls)
);
},
{
attr = {
lineCapStart = 2;
strokeHeight = 180;
strokeWidth = 196;
};
closed = 0;
nodes = (
(17,944,l),
(179,944,ls),
(270,944,o),
(324,1011,o),
(324,1098,cs),
(324,1143,ls),
(324,1278,o),
(393,1392,o),
(572,1392,cs),
(706,1392,l)
);
}
);
width = 722;
},
{
associatedMasterId = m001;
layerId = "750D0912-4241-4851-83F0-3757BFF395A9";
name = Background;
shapes = (
{
closed = 1;
nodes = (
(28,843,l),
(28,1014,l),
(218,1014,l),
(218,1124,ls),
(218,1300,o),
(396,1483,o),
(568,1483,qs),
(636,1483,o),
(697,1472,q),
(697,1298,l),
(670,1303,o),
(619,1308,o),
(596,1308,qs),
(430,1308,o),
(430,1119,qs),
(430,1014,l),
(687,1014,l),
(687,843,l),
(430,843,l),
(430,0,l),
(218,0,l),
(218,843,l)
);
}
);
visible = 1;
width = 722;
}
);
unicode = 102;
}
{
glyphname = g;
layers = (
{
layerId = m001;
shapes = (
{
attr = {
strokeHeight = 180;
strokeWidth = 196;
};
closed = 0;
nodes = (
(952,1014,l),
(952,675,ls),
(952,353,o),
(795,99,o),
(517,99,cs),
(303,99,o),
(144,252,o),
(144,525,cs),
(144,785,o),
(314,944,o),
(517,944,cs),
(785,944,o),
(951,748,o),
(951,521,cs),
(951,109,ls),
(951,-179,o),
(749,-305,o),
(569,-305,cs),
(364,-305,o),
(241,-210,o),
(153,-93,c)
);
}
);
width = 1148;
},
{
annotations = (
{
pos = (773.775,199.516);
type = Circle;
width = 183.69561;
}
);
associatedMasterId = m001;
layerId = "74069A59-02A5-4080-802A-0E9BB2B0BDF5";
name = Stroke;
shapes = (
{
attr = {
strokeHeight = 180;
strokeWidth = 196;
};
closed = 0;
nodes = (
(952,1014,l),
(952,675,ls),
(952,353,o),
(795,99,o),
(517,99,cs),
(303,99,o),
(144,252,o),
(144,525,cs),
(144,785,o),
(314,944,o),
(517,944,cs),
(785,944,o),
(951,748,o),
(951,521,cs),
(951,109,ls),
(951,-179,o),
(749,-305,o),
(569,-305,cs),
(364,-305,o),
(241,-210,o),
(153,-93,c)
);
}
);
visible = 1;
width = 1148;
},
{
associatedMasterId = m001;
layerId = "221A9965-565C-4B45-9331-61ED5779A8EB";
name = Background;
shapes = (
{
closed = 1;
nodes = (
(837,179,l),
(787,96,o),
(611,7,o),
(504,7,qs),
(366,7,o),
(165,136,o),
(55,368,o),
(55,678,o),
(164,909,o),
(366,1037,o),
(505,1037,qs),
(613,1037,o),
(796,939,o),
(843,853,q),
(843,1014,l),
(1049,1014,l),
(1049,124,ls),
(1049,-123,o),
(784,-393,o),
(540,-393,qs),
(347,-393,o),
(118,-231,o),
(92,-77,q),
(304,-77,l),
(346,-210,o),
(540,-210,qs),
(837,-210,o),
(837,105,qs)
);
},
{
closed = 1;
nodes = (
(691,852,o),
(424,852,o),
(273,677,o),
(273,367,o),
(424,192,o),
(691,192,o),
(841,367,o),
(841,677,o)
);
}
);
visible = 1;
width = 1148;
}
);
unicode = 103;
}
{
glyphname = h;
layers = (
{
layerId = m001;
shapes = (
{
attr = {
lineCapEnd = "2";
strokeHeight = 180;
strokeWidth = 196;
};
closed = 0;
nodes = (
(902,0,l),
(902,620,ls),
(902,830,o),
(749,945,o),
(602,945,cs),
(360,945,o),
(194,772,o),
(194,455,cs),
(194,64,l)
);
},
{
attr = {
lineCapEnd = "2";
strokeHeight = 180;
strokeWidth = 196;
};
closed = 0;
nodes = (
(194,1460,l),
(194,0,l)
);
}
);
width = 1094;
},
{
annotations = (
{
pos = (324,838);
type = Circle;
width = 164.82001;
}
);
associatedMasterId = m001;
layerId = "0AD1243B-97F9-425C-8C1F-F3EEE698CF76";
name = Stroke;
shapes = (
{
attr = {
lineCapEnd = 2;
strokeHeight = 180;
strokeWidth = 196;
};
closed = 0;
nodes = (
(902,0,l),
(902,620,ls),
(902,830,o),
(749,945,o),
(602,945,cs),
(360,945,o),
(194,772,o),
(194,455,cs),
(194,64,l)
);
},
{
attr = {
lineCapEnd = 2;
strokeHeight = 180;
strokeWidth = 196;
};
closed = 0;
nodes = (
(194,1460,l),
(194,0,l)
);
}
);
visible = 1;
width = 1094;
},
{
associatedMasterId = m001;
layerId = "9A666F44-2108-459E-8C7D-87522B091825";
name = Background;
shapes = (
{
attr = {
lineCapStart = 2;
strokeHeight = 180;
strokeWidth = 196;
};
closed = 0;
nodes = (
(192,1460,l),
(192,0,l),
(194,484,l)
);
},
{
closed = 1;
nodes = (
(312,0,l),
(312,577,ls),
(312,700,o),
(462,852,o),
(687,852,o),
(787,722,o),
(787,581,qs),
(787,0,l),
(999,0,l),
(999,605,ls),
(999,1037,o),
(632,1037,qs),
(522,1037,o),
(358,945,o),
(312,876,q),
(312,1460,l),
(99,1460,l),
(99,0,l)
);
}
);
visible = 1;
width = 1094;
}
);
unicode = 104;
}
{
glyphname = k;
layers = (
{
layerId = m001;
shapes = (
{
attr = {
lineCapEnd = "2";
strokeHeight = 180;
strokeWidth = 196;
};
closed = 0;
nodes = (
(200,1460,l),
(200,90,ls),
(200,62,o),
(220,54,o),
(238,81,cs),
(878,1043,l)
);
},
{
attr = {
lineCapEnd = "4";
lineCapStart = "2";
strokeHeight = 180;
strokeWidth = 196;
};
closed = 0;
nodes = (
(879,1043,l),
(616,630,ls),
(567,553,o),
(556,490,o),
(604,426,cs),
(922,0,l)
);
}
);
width = 1037;
},
{
associatedMasterId = m001;
layerId = "0E0B2BC0-9CEA-4BDB-A266-0A9532E55B7A";
name = Stroke;
shapes = (
{
attr = {
lineCapEnd = "2";
strokeHeight = 180;
strokeWidth = 196;
};
closed = 0;
nodes = (
(200,1460,l),
(200,90,ls),
(200,62,o),
(220,54,o),
(238,81,cs),
(878,1043,l)
);
},
{
attr = {
lineCapEnd = "4";
lineCapStart = "2";
strokeHeight = 180;
strokeWidth = 196;
};
closed = 0;
nodes = (
(879,1043,l),
(616,630,ls),
(567,553,o),
(556,490,o),
(604,426,cs),
(922,0,l)
);
}
);
visible = 1;
width = 1037;
},
{
associatedMasterId = m001;
layerId = "42E7BE07-9909-4DF9-8E74-5D53B5B6AD57";
name = Background;
shapes = (
{
closed = 1;
nodes = (
(312,1460,l),
(312,589,l),
(748,1014,l),
(999,1014,l),
(578,609,l),
(1038,0,l),
(785,0,l),
(435,481,l),
(312,361,l),
(312,0,l),
(99,0,l),
(99,1460,l)
);
}
);
visible = 1;
width = 1037;
}
);
unicode = 107;
}
{
glyphname = o;
layers = (
{
layerId = m001;
shapes = (
{
attr = {
strokeHeight = 180;
strokeWidth = 196;
};
closed = 1;
nodes = (
(322,66,o),
(153,215,o),
(153,506,cs),
(153,785,o),
(316,949,o),
(557,949,cs),
(797,949,o),
(961,785,o),
(961,506,cs),
(961,215,o),
(791,66,o),
(557,66,cs)
);
}
);
width = 1114;
},
{
associatedMasterId = m001;
layerId = "B5D82866-A5BB-47C7-BBBA-406652BF2D0C";
name = Stroke;
shapes = (
{
attr = {
strokeHeight = 180;
strokeWidth = 196;
};
closed = 1;
nodes = (
(322,66,o),
(153,215,o),
(153,506,cs),
(153,785,o),
(316,949,o),
(557,949,cs),
(797,949,o),
(961,785,o),
(961,506,cs),
(961,215,o),
(791,66,o),
(557,66,cs)
);
}
);
visible = 1;
width = 1114;
},
{
associatedMasterId = m001;
layerId = "C0F092B7-8D8A-4072-8D6C-42BB93628AC5";
name = Background;
shapes = (
{
closed = 1;
nodes = (
(179,906,o),
(405,1037,o),
(710,1037,o),
(936,906,o),
(1059,668,o),
(1059,347,o),
(936,108,o),
(710,-23,o),
(405,-23,o),
(179,108,o),
(55,347,o),
(55,668,o)
);
},
{
closed = 1;
nodes = (
(691,852,o),
(423,852,o),
(273,671,o),
(273,344,o),
(423,162,o),
(691,162,o),
(841,344,o),
(841,671,o)
);
}
);
visible = 1;
width = 1114;
}
);
unicode = 111;
}
{
glyphname = s;
layers = (
{
layerId = m001;
shapes = (
{
attr = {
strokeHeight = 180;
strokeWidth = 196;
};
closed = 0;
nodes = (
(159,287,l),
(216,145,o),
(323,77,o),
(483,77,cs),
(676,77,o),
(795,161,o),
(795,294,cs),
(795,452,o),
(633,489,o),
(484,518,cs),
(320,549,o),
(192,609,o),
(192,726,cs),
(192,845,o),
(295,942,o),
(488,942,cs),
(613,942,o),
(745,872,o),
(779,738,c)
);
}
);
width = 961;
},
{
associatedMasterId = m001;
layerId = "84F34AF2-DB92-47EE-BF6F-3050CD0326D3";
name = Stroke;
shapes = (
{
attr = {
strokeHeight = 180;
strokeWidth = 196;
};
closed = 0;
nodes = (
(159,287,l),
(216,145,o),
(323,77,o),
(483,77,cs),
(676,77,o),
(795,161,o),
(795,294,cs),
(795,452,o),
(633,489,o),
(484,518,cs),
(320,549,o),
(192,609,o),
(192,726,cs),
(192,845,o),
(295,942,o),
(488,942,cs),
(613,942,o),
(745,872,o),
(779,738,c)
);
}
);
visible = 1;
width = 961;
},
{
associatedMasterId = m001;
layerId = "C2555DFB-130E-44E9-87F2-2363C6B6B678";
name = Background;
shapes = (
{
closed = 1;
nodes = (
(693,336,o),
(625,394,o),
(536,413,qs),
(364,450,ls),
(90,511,o),
(90,730,qs),
(90,869,o),
(303,1037,o),
(656,1037,o),
(873,876,o),
(889,729,q),
(693,729,l),
(668,868,o),
(485,868,qs),
(394,868,o),
(290,802,o),
(290,744,qs),
(290,695,o),
(357,637,o),
(439,620,qs),
(615,583,ls),
(901,521,o),
(901,284,qs),
(901,141,o),
(674,-23,o),
(475,-23,qs),
(300,-23,o),
(80,139,o),
(56,287,q),
(252,287,l),
(284,149,o),
(475,149,qs),
(693,149,o),
(693,280,qs)
);
}
);
visible = 1;
width = 961;
}
);
unicode = 115;
}
{
glyphname = y;
layers = (
{
layerId = m001;
shapes = (
{
attr = {
lineCapEnd = "2";
lineCapStart = "4";
strokeHeight = 180;
strokeWidth = 196;
};
closed = 0;
nodes = (
(120,1014,l),
(411,244,ls),
(432,189,o),
(471,159,o),
(521,159,cs),
(562,159,o),
(605,176,o),
(628,241,cs),
(901,1015,l)
);
},
{
attr = {
lineCapEnd = "4";
lineCapStart = "2";
strokeHeight = 180;
strokeWidth = 196;
};
closed = 0;
nodes = (
(902,1015,l),
(482,-178,ls),
(447,-276,o),
(380,-322,o),
(276,-322,cs),
(101,-322,l)
);
}
);
width = 1022;
},
{
associatedMasterId = m001;
layerId = "7028777F-E59F-4350-B1C0-463665B2D56C";
name = Stroke;
shapes = (
{
attr = {
lineCapEnd = 2;
lineCapStart = "4";
strokeHeight = 180;
strokeWidth = 196;
};
closed = 0;
nodes = (
(120,1014,l),
(411,244,ls),
(432,189,o),
(471,159,o),
(521,159,cs),
(562,159,o),
(605,176,o),
(628,241,cs),
(901,1015,l)
);
},
{
attr = {
lineCapEnd = "4";
lineCapStart = 2;
strokeHeight = 180;
strokeWidth = 196;
};
closed = 0;
nodes = (
(902,1015,l),
(482,-178,ls),
(447,-276,o),
(380,-322,o),
(276,-322,cs),
(101,-322,l)
);
}
);
visible = 1;
width = 1022;
},
{
associatedMasterId = m001;
layerId = "0ADB2EBB-5A3C-42DF-BBB8-E7C1F7167F66";
name = Background;
shapes = (
{
closed = 1;
nodes = (
(174,-215,o),
(219,-215,qs),
(290,-215,o),
(364,-150,o),
(399,-53,qs),
(415,-9,l),
(18,1014,l),
(255,1014,l),
(528,245,l),
(783,1014,l),
(1004,1014,l),
(613,-80,ls),
(551,-255,o),
(389,-393,o),
(252,-393,qs),
(218,-393,o),
(161,-385,o),
(138,-381,q),
(138,-205,l)
);
}
);
visible = 1;
width = 1022;
}
);
unicode = 121;
}
{
glyphname = sterling;
layers = (
{
layerId = m001;
shapes = (
{
closed = 1;
nodes = (
(70,185,ls),
(188,185,o),
(316,325,o),
(316,448,qs),
(316,479,o),
(304,543,o),
(289,587,q),
(48,587,l),
(48,762,l),
(224,762,l),
(182,891,o),
(182,1003,qs),
(182,1199,o),
(428,1424,o),
(637,1424,qs),
(838,1424,o),
(1083,1206,o),
(1108,1008,q),
(881,1008,l),
(844,1239,o),
(637,1239,qs),
(528,1239,o),
(409,1119,o),
(409,1000,qs),
(409,896,o),
(453,762,q),
(879,762,l),
(879,587,l),
(514,587,l),
(535,514,o),
(535,457,qs),
(535,372,o),
(459,231,o),
(393,185,q),
(1121,185,l),
(1121,0,l),
(48,0,l),
(48,185,l)
);
}
);
width = 1170;
}
);
unicode = 163;
}
{
glyphname = ordmasculine;
layers = (
{
layerId = m001;
shapes = (
{
closed = 1;
nodes = (
(220,1422,o),
(516,1422,o),
(694,1237,o),
(694,929,o),
(516,744,o),
(220,744,o),
(42,929,o),
(42,1237,o)
);
},
{
closed = 1;
nodes = (
(448,1290,o),
(288,1290,o),
(195,1180,o),
(195,986,o),
(288,876,o),
(448,876,o),
(540,986,o),
(540,1180,o)
);
}
);
width = 736;
}
);
unicode = 186;
}
{
glyphname = ae;
layers = (
{
layerId = m001;
shapes = (
{
closed = 1;
nodes = (
(1481,598,l),
(1468,718,o),
(1325,859,o),
(1213,859,qs),
(1103,859,o),
(961,720,o),
(942,598,q)
);
},
{
closed = 1;
nodes = (
(506,858,qs),
(323,858,o),
(292,723,q),
(84,723,l),
(106,870,o),
(329,1037,o),
(503,1037,qs),
(629,1037,o),
(811,937,o),
(854,848,q),
(911,935,o),
(1099,1037,o),
(1221,1037,qs),
(1364,1037,o),
(1575,904,o),
(1692,661,o),
(1692,495,qs),
(1692,442,l),
(940,442,l),
(954,306,o),
(1096,157,o),
(1212,157,qs),
(1405,157,o),
(1459,311,q),
(1665,311,l),
(1630,155,o),
(1388,-23,o),
(1213,-23,qs),
(1073,-23,o),
(873,91,o),
(820,194,q),
(765,88,o),
(554,-23,o),
(412,-23,qs),
(247,-23,o),
(64,141,o),
(64,285,qs),
(64,440,o),
(290,609,o),
(494,609,qs),
(730,609,l),
(730,613,ls),
(730,858,o)
);
},
{
closed = 1;
nodes = (
(730,457,l),
(510,457,ls),
(274,457,o),
(274,295,qs),
(274,150,o),
(454,150,qs),
(579,150,o),
(730,294,o),
(730,413,qs)
);
}
);
width = 1746;
}
);
unicode = 230;
}
{
glyphname = eth;
layers = (
{
layerId = m001;
shapes = (
{
closed = 1;
nodes = (
(54,661,o),
(167,897,o),
(369,1030,o),
(501,1030,qs),
(674,1030,o),
(790,917,q),
(740,1045,o),
(644,1164,q),
(323,1099,l),
(289,1252,l),
(519,1298,l),
(431,1380,o),
(318,1460,q),
(592,1460,l),
(663,1406,o),
(727,1339,q),
(999,1393,l),
(1033,1242,l),
(838,1203,l),
(941,1054,o),
(1058,703,o),
(1058,527,qs),
(1058,358,o),
(936,111,o),
(710,-23,o),
(401,-23,o),
(176,106,o),
(54,344,o),
(54,506,qs)
);
},
{
closed = 1;
nodes = (
(272,342,o),
(422,162,o),
(690,162,o),
(840,342,o),
(840,503,qs),
(840,666,o),
(690,846,o),
(422,846,o),
(272,666,o),
(272,503,qs)
);
}
);
width = 1118;
}
);
unicode = 240;
}
{
glyphname = oe;
layers = (
{
layerId = m001;
shapes = (
{
closed = 1;
nodes = (
(179,906,o),
(403,1037,o),
(553,1037,qs),
(687,1037,o),
(886,913,o),
(942,812,q),
(1003,916,o),
(1196,1037,o),
(1326,1037,qs),
(1473,1037,o),
(1689,904,o),
(1807,661,o),
(1807,495,qs),
(1807,442,l),
(1055,442,l),
(1069,306,o),
(1212,157,o),
(1328,157,qs),
(1520,157,o),
(1574,311,q),
(1781,311,l),
(1745,155,o),
(1503,-23,o),
(1323,-23,qs),
(1196,-23,o),
(1002,94,o),
(943,194,q),
(886,94,o),
(687,-23,o),
(553,-23,qs),
(403,-23,o),
(179,108,o),
(55,347,o),
(55,668,o)
);
},
{
closed = 1;
nodes = (
(691,852,o),
(423,852,o),
(273,671,o),
(273,344,o),
(423,162,o),
(691,162,o),
(841,344,o),
(841,671,o)
);
},
{
closed = 1;
nodes = (
(1441,859,o),
(1218,859,o),
(1076,720,o),
(1057,598,q),
(1597,598,l),
(1584,718,o)
);
}
);
width = 1862;
}
);
unicode = 339;
}
{
glyphname = uni0306;
layers = (
{
layerId = m001;
shapes = (
{
closed = 1;
nodes = (
(-166,1470,l),
(-166,1307,o),
(166,1307,o),
(166,1470,q),
(339,1470,l),
(339,1310,o),
(160,1152,o),
(-160,1152,o),
(-339,1310,o),
(-339,1470,q)
);
}
);
width = 0;
}
);
unicode = 774;
}
{
glyphname = uni030A;
layers = (
{
layerId = m001;
shapes = (
{
closed = 1;
nodes = (
(-114,1621,o),
(114,1621,o),
(256,1485,o),
(256,1276,o),
(114,1140,o),
(-114,1140,o),
(-256,1276,o),
(-256,1485,o)
);
},
{
closed = 1;
nodes = (
(50,1497,o),
(-50,1497,o),
(-112,1432,o),
(-112,1329,o),
(-50,1264,o),
(50,1264,o),
(112,1329,o),
(112,1432,o)
);
}
);
width = 0;
}
);
unicode = 778;
}
{
glyphname = uni030B;
layers = (
{
layerId = m001;
shapes = (
{
closed = 1;
nodes = (
(124,1518,l),
(-103,1160,l),
(-281,1160,l),
(-102,1518,l)
);
},
{
closed = 1;
nodes = (
(512,1518,l),
(285,1160,l),
(107,1160,l),
(287,1518,l)
);
}
);
width = 0;
}
);
unicode = 779;
}
{
glyphname = uni0312;
layers = (
{
layerId = m001;
shapes = (
{
closed = 1;
nodes = (
(-164,1160,l),
(11,1518,l),
(182,1518,l),
(58,1160,l)
);
}
);
width = 0;
}
);
unicode = 786;
}
{
glyphname = uni0315;
layers = (
{
layerId = m001;
shapes = (
{
closed = 1;
nodes = (
(338,1460,l),
(247,1060,l),
(77,1060,l),
(138,1460,l)
);
}
);
width = 0;
}
);
unicode = 789;
}
{
glyphname = uni0327;
layers = (
{
layerId = m001;
shapes = (
{
closed = 1;
nodes = (
(-125,-368,o),
(-64,-368,qs),
(-8,-368,o),
(54,-325,o),
(54,-288,qs),
(54,-205,o),
(-68,-205,qs),
(-158,-205,l),
(-158,-127,l),
(-24,58,l),
(93,7,l),
(10,-101,l),
(107,-109,o),
(217,-211,o),
(217,-295,qs),
(217,-386,o),
(81,-495,o),
(-41,-495,qs),
(-121,-495,o),
(-180,-472,q),
(-180,-345,l)
);
}
);
width = 0;
}
);
unicode = 807;
}
{
glyphname = endash;
layers = (
{
layerId = m001;
shapes = (
{
closed = 1;
nodes = (
(935,635,l),
(935,457,l),
(65,457,l),
(65,635,l)
);
}
);
width = 1000;
}
);
unicode = 8211;
}
{
glyphname = emdash;
layers = (
{
layerId = m001;
shapes = (
{
closed = 1;
nodes = (
(1935,635,l),
(1935,457,l),
(65,457,l),
(65,635,l)
);
}
);
width = 2000;
}
);
unicode = 8212;
}
{
glyphname = dagger;
layers = (
{
layerId = m001;
shapes = (
{
closed = 1;
nodes = (
(44,935,l),
(44,1094,l),
(332,1094,l),
(332,1460,l),
(512,1460,l),
(512,1094,l),
(800,1094,l),
(800,935,l),
(512,935,l),
(512,271,l),
(332,271,l),
(332,935,l)
);
}
);
width = 844;
}
);
unicode = 8224;
}
{
glyphname = fraction;
layers = (
{
layerId = m001;
shapes = (
{
closed = 1;
nodes = (
(705,1400,l),
(-188,0,l),
(-395,0,l),
(498,1400,l)
);
}
);
width = 310;
}
);
unicode = 8260;
}
{
glyphname = Euro;
layers = (
{
layerId = m001;
shapes = (
{
closed = 1;
nodes = (
(183,622,l),
(181,656,o),
(181,692,qs),
(181,736,o),
(185,779,q),
(5,779,l),
(5,934,l),
(213,934,l),
(255,1084,o),
(440,1303,o),
(706,1423,o),
(870,1423,qs),
(967,1423,o),
(1100,1404,o),
(1165,1381,q),
(1165,1193,l),
(1104,1217,o),
(973,1239,o),
(882,1239,qs),
(724,1239,o),
(498,1077,o),
(447,934,q),
(988,934,l),
(988,779,l),
(412,779,l),
(408,739,o),
(408,696,qs),
(408,658,o),
(411,622,q),
(988,622,l),
(988,467,l),
(444,467,l),
(493,323,o),
(720,162,o),
(882,162,qs),
(973,162,o),
(1104,183,o),
(1165,208,q),
(1165,20,l),
(1100,-3,o),
(967,-23,o),
(870,-23,qs),
(611,-23,o),
(265,238,o),
(208,467,q),
(5,467,l),
(5,622,l)
);
}
);
width = 1170;
}
);
unicode = 8364;
}
{
glyphname = uni20BA;
layers = (
{
layerId = m001;
shapes = (
{
closed = 1;
nodes = (
(-11,347,l),
(-11,512,l),
(176,599,l),
(176,756,l),
(-11,668,l),
(-11,833,l),
(176,921,l),
(176,1400,l),
(395,1400,l),
(395,1006,l),
(786,1192,l),
(786,1027,l),
(395,841,l),
(395,685,l),
(786,870,l),
(786,705,l),
(395,520,l),
(395,188,l),
(476,188,ls),
(703,188,o),
(958,454,o),
(958,687,q),
(1180,687,l),
(1180,473,o),
(1008,165,o),
(691,0,o),
(471,0,qs),
(176,0,l),
(176,434,l)
);
}
);
width = 1170;
}
);
unicode = 8378;
}
{
glyphname = trademark;
layers = (
{
layerId = m001;
shapes = (
{
closed = 1;
nodes = (
(957,1400,l),
(1162,966,l),
(1365,1400,l),
(1559,1400,l),
(1559,672,l),
(1406,672,l),
(1406,1155,l),
(1222,772,l),
(1099,772,l),
(917,1153,l),
(917,672,l),
(763,672,l),
(763,1400,l)
);
},
{
closed = 1;
nodes = (
(25,1261,l),
(25,1400,l),
(641,1400,l),
(641,1261,l),
(415,1261,l),
(415,672,l),
(252,672,l),
(252,1261,l)
);
}
);
width = 1659;
}
);
unicode = 8482;
}
{
glyphname = M.alt;
layers = (
{
layerId = m001;
shapes = (
{
attr = {
lineCapEnd = "4";
lineCapStart = "4";
strokeHeight = 198;
strokeWidth = 212;
};
closed = 0;
nodes = (
(1433,0,l),
(1433,1296,ls),
(1433,1312,o),
(1424,1321,o),
(1408,1321,cs),
(1377,1321,ls),
(1364,1321,o),
(1353,1314,o),
(1347,1304,cs),
(828,497,l),
(768,367,o),
(782,239,o),
(828,239,cs),
(863,239,o),
(887,367,o),
(828,497,c),
(299,1304,ls),
(291,1316,o),
(282,1321,o),
(269,1321,cs),
(247,1321,ls),
(231,1321,o),
(222,1312,o),
(222,1296,cs),
(222,0,l)
);
}
);
width = 1655;
},
{
associatedMasterId = m001;
layerId = "3FEFFF3E-DCB8-484C-B364-5FA5D2A9CF72";
name = Stroke;
shapes = (
{
attr = {
lineCapEnd = 4;
lineCapStart = "4";
strokeHeight = 198;
strokeWidth = 212;
};
closed = 0;
nodes = (
(1433,0,l),
(1433,1296,ls),
(1433,1312,o),
(1424,1321,o),
(1408,1321,cs),
(1377,1321,ls),
(1364,1321,o),
(1353,1314,o),
(1347,1304,cs),
(828,497,l),
(768,367,o),
(782,239,o),
(828,239,cs),
(863,239,o),
(887,367,o),
(828,497,c),
(299,1304,ls),
(291,1316,o),
(282,1321,o),
(269,1321,cs),
(247,1321,ls),
(231,1321,o),
(222,1312,o),
(222,1296,cs),
(222,0,l)
);
}
);
visible = 1;
width = 1655;
},
{
associatedMasterId = m001;
layerId = "F4E35BCA-C14A-4DC8-AFF1-74700F8D35EF";
name = Background;
shapes = (
{
attr = {
lineCapEnd = "2";
lineCapStart = "4";
strokeHeight = 198;
strokeWidth = 212;
};
closed = 0;
nodes = (
(1433,0,l),
(1433,1296,ls),
(1433,1312,o),
(1424,1321,o),
(1408,1321,cs),
(1377,1321,ls),
(1364,1321,o),
(1354,1315,o),
(1347,1304,cs),
(866,504,ls),
(817,422,o),
(826,327,o),
(826,244,cs),
(826,153,l)
);
},
{
attr = {
lineCapEnd = "4";
lineCapStart = "2";
strokeHeight = 198;
strokeWidth = 212;
};
closed = 0;
nodes = (
(825,153,l),
(825,244,ls),
(825,327,o),
(830,430,o),
(785,504,cs),
(299,1304,ls),
(292,1315,o),
(282,1321,o),
(269,1321,cs),
(247,1321,ls),
(231,1321,o),
(222,1312,o),
(222,1296,cs),
(222,0,l)
);
}
);
visible = 1;
width = 1655;
}
);
}
{
glyphname = P.alt;
layers = (
{
layerId = m001;
shapes = (
{
attr = {
strokeHeight = 198;
strokeWidth = 212;
};
closed = 0;
nodes = (
(222,1038,l),
(222,627,o),
(488,525,o),
(671,525,cs),
(942,525,o),
(1055,727,o),
(1055,946,cs),
(1055,1139,o),
(909,1299,o),
(648,1299,cs),
(228,1299,ls),
(224,1299,o),
(222,1297,o),
(222,1293,cs),
(222,0,ls)
);
}
);
width = 1220;
},
{
associatedMasterId = m001;
layerId = "56A46380-2DEB-4F7D-BE4E-CF5687878DD3";
name = Background;
shapes = (
{
attr = {
lineCapStart = "2";
strokeHeight = 198;
strokeWidth = 212;
};
closed = 0;
nodes = (
(216,566,l),
(648,566,ls),
(875,566,o),
(1055,727,o),
(1055,946,cs),
(1055,1139,o),
(909,1299,o),
(648,1299,cs),
(228,1299,ls),
(224,1299,o),
(222,1297,o),
(222,1293,cs),
(222,0,ls)
);
}
);
visible = 1;
width = 1220;
}
);
}
{
glyphname = Q.alt;
layers = (
{
layerId = m001;
shapes = (
{
attr = {
lineCapEnd = "2";
lineCapStart = "2";
strokeHeight = 198;
strokeWidth = 212;
};
closed = 1;
nodes = (
(1225,-133,o),
(1156,-35,cs),
(1036,137,o),
(903,305,o),
(816,431,cs),
(758,515,o),
(705,640,o),
(738,653,cs),
(776,668,o),
(827,559,o),
(853,442,cs),
(923,122,o),
(797,76,o),
(621,76,cs),
(382,76,o),
(167,342,o),
(167,700,cs),
(167,1104,o),
(400,1328,o),
(735,1328,cs),
(1070,1328,o),
(1299,1104,o),
(1299,700,cs),
(1299,580,o),
(1307,423,o),
(1189,266,cs),
(1119,172,o),
(1100,64,o),
(1125,-52,cs),
(1149,-164,o),
(1195,-228,o),
(1230,-210,cs),
(1267,-191,o)
);
}
);
width = 1469;
},
{
associatedMasterId = m001;
layerId = "75CD7CBE-6EFA-4712-BD93-4DDBFAEE2A9C";
name = Stroke;
shapes = (
{
attr = {
lineCapEnd = "2";
lineCapStart = "2";
strokeHeight = 198;
strokeWidth = 212;
};
closed = 1;
nodes = (
(1242,-129,o),
(1167,-35,cs),
(1047,116,o),
(891,356,o),
(805,480,cs),
(729,590,o),
(671,684,o),
(715,712,cs),
(761,741,o),
(820,627,o),
(842,509,cs),
(921,88,o),
(805,76,o),
(677,76,cs),
(382,76,o),
(167,342,o),
(167,700,cs),
(167,1104,o),
(400,1328,o),
(735,1328,cs),
(1070,1328,o),
(1299,1104,o),
(1299,700,cs),
(1299,580,o),
(1312,440,o),
(1206,283,cs),
(1140,186,o),
(1078,45,o),
(1123,-68,cs),
(1173,-195,o),
(1206,-230,o),
(1241,-212,cs),
(1278,-193,o)
);
},
{
attr = {
lineCapEnd = "2";
lineCapStart = "2";
strokeHeight = 198;
strokeWidth = 212;
};
closed = 1;
nodes = (
(1242,-129,o),
(1167,-35,cs),
(1047,116,o),
(891,356,o),
(805,480,cs),
(729,590,o),
(671,684,o),
(715,712,cs),
(761,741,o),
(820,627,o),
(842,509,cs),
(921,88,o),
(805,76,o),
(677,76,cs),
(382,76,o),
(167,342,o),
(167,700,cs),
(167,1104,o),
(400,1328,o),
(735,1328,cs),
(1070,1328,o),
(1299,1104,o),
(1299,700,cs),
(1299,580,o),
(1312,440,o),
(1206,283,cs),
(1140,186,o),
(1078,45,o),
(1123,-68,cs),
(1173,-195,o),
(1206,-230,o),
(1241,-212,cs),
(1278,-193,o)
);
}
);
visible = 1;
width = 1469;
}
);
}
{
glyphname = R.alt;
layers = (
{
layerId = m001;
shapes = (
{
attr = {
lineCapEnd = "4";
lineCapStart = 4;
strokeHeight = 198;
strokeWidth = 212;
};
closed = 0;
nodes = (
(1113,0,l),
(1044,102,o),
(792,461,o),
(678,647,cs),
(597,779,o),
(540,821,o),
(520,802,cs),
(499,782,o),
(530,717,o),
(659,631,cs),
(849,505,o),
(1089,681,o),
(1089,941,cs),
(1089,1143,o),
(910,1299,o),
(620,1299,cs),
(228,1299,ls),
(224,1299,o),
(222,1297,o),
(222,1293,cs),
(222,0,ls)
);
}
);
width = 1249;
}
);
}
{
glyphname = V.alt;
layers = (
{
layerId = m001;
shapes = (
{
closed = 1;
nodes = (
(1176,2,o),
(1419,962,o),
(1463,1343,cs),
(1468,1382,o),
(1435,1435,o),
(1376,1435,cs),
(1343,1435,o),
(1297,1420,o),
(1286,1374,cs),
(1190,1001,o),
(927,242,o),
(742,242,cs),
(558,242,o),
(294,1001,o),
(199,1374,cs),
(187,1420,o),
(142,1435,o),
(109,1435,cs),
(49,1435,o),
(17,1382,o),
(21,1343,cs),
(66,962,o),
(308,2,o),
(742,2,cs)
);
},
{
closed = 1;
nodes = (
(1140,593,o),
(1419,961,o),
(1463,1342,cs),
(1468,1381,o),
(1434,1434,o),
(1376,1434,cs),
(1343,1434,o),
(1297,1419,o),
(1286,1373,cs),
(1190,1000,o),
(988,779,o),
(742,779,cs),
(497,779,o),
(294,1000,o),
(199,1373,cs),
(187,1419,o),
(142,1434,o),
(109,1434,cs),
(51,1434,o),
(17,1381,o),
(21,1342,cs),
(66,961,o),
(345,593,o),
(742,593,cs)
);
}
);
width = 1484;
}
);
}
{
glyphname = V_i_b_e_s.liga;
lastChange = "2025-12-17 20:55:19 +0000";
layers = (
{
.lastUpdate = 787697719.397;
layerId = m001;
shapes = (
{
closed = 1;
nodes = (
(1727,1479,o),
(1519,1397,o),
(1347,1263,cs),
(1077,1053,o),
(891,701,o),
(715,409,cs),
(701,387,o),
(699,381,o),
(689,381,cs),
(683,381,o),
(679,385,o),
(679,397,cs),
(679,1089,l),
(685,1291,o),
(613,1335,o),
(509,1335,cs),
(371,1335,o),
(155,1231,o),
(7,1161,c),
(7,841,l),
(315,985,ls),
(347,1001,o),
(373,1011,o),
(383,1011,cs),
(411,1011,o),
(411,975,o),
(411,945,cs),
(411,191,ls),
(411,31,o),
(521,-29,o),
(601,-29,cs),
(719,-29,o),
(797,37,o),
(869,143,cs),
(1065,429,o),
(1237,807,o),
(1511,1021,cs),
(1647,1127,o),
(1801,1189,o),
(1992,1189,c),
(1992,1479,l)
);
},
{
closed = 1;
nodes = (
(1717,0,l),
(1992,0,l),
(1992,1010,l),
(1717,1010,l)
);
},
{
closed = 1;
nodes = (
(2890,179,o),
(2995,294,o),
(2995,527,cs),
(2995,732,o),
(2860,869,o),
(2729,869,cs),
(2530,869,o),
(2439,696,o),
(2439,502,cs),
(2439,287,o),
(2560,179,o),
(2729,179,cs)
);
},
{
closed = 1;
nodes = (
(2434,1483,l),
(2434,903,l),
(2479,994,o),
(2598,1069,o),
(2752,1069,cs),
(3044,1069,o),
(3243,866,o),
(3243,527,cs),
(3243,156,o),
(3021,-21,o),
(2729,-21,cs),
(2598,-21,o),
(2490,27,o),
(2435,125,c),
(2435,0,l),
(2185,0,l),
(2184,1483,l)
);
},
{
closed = 1;
nodes = (
(3748,610,l),
(4095,610,l),
(4095,761,o),
(4003,865,o),
(3873,865,cs),
(3708,865,o),
(3589,751,o),
(3589,519,cs),
(3589,283,o),
(3698,174,o),
(3873,174,cs),
(3977,174,o),
(4041,207,o),
(4112,283,c),
(4295,154,l),
(4202,35,o),
(4101,-24,o),
(3873,-24,cs),
(3570,-24,o),
(3342,157,o),
(3342,519,cs),
(3342,872,o),
(3581,1064,o),
(3873,1064,cs),
(4169,1064,o),
(4344,851,o),
(4344,590,cs),
(4344,470,o),
(4266,428,o),
(4171,428,cs),
(3748,428,l)
);
}
);
width = 4413;
}
);
metricRight = e;
}
{
glyphname = .notdef;
layers = (
{
layerId = m001;
shapes = (
{
closed = 1;
nodes = (
(1035,1460,l),
(1035,-400,l),
(98,-400,l),
(98,1460,l)
);
},
{
closed = 1;
nodes = (
(297,1279,l),
(297,-219,l),
(837,-219,l),
(837,1279,l)
);
}
);
width = 1133;
}
);
}
{
glyphname = e.caltInit;
layers = (
{
layerId = m001;
shapes = (
{
attr = {
strokeHeight = 180;
strokeWidth = 196;
};
closed = 0;
nodes = (
(1199,283,l),
(974,134,o),
(772,66,o),
(613,66,cs),
(378,66,o),
(152,221,o),
(152,506,cs),
(152,768,o),
(314,949,o),
(560,949,cs),
(725,949,o),
(845,842,o),
(860,757,cs),
(871,692,o),
(852,655,o),
(795,623,cs),
(421,411,l)
);
}
);
width = 1010;
}
);
metricLeft = e;
}
{
glyphname = e.caltMid;
layers = (
{
layerId = m001;
shapes = (
{
attr = {
strokeHeight = 180;
strokeWidth = 196;
};
closed = 0;
nodes = (
(1275,316,l),
(1051,193,o),
(746,66,o),
(560,66,cs),
(318,66,o),
(152,211,o),
(152,506,cs),
(152,768,o),
(314,949,o),
(560,949,cs),
(725,949,o),
(845,842,o),
(860,757,cs),
(871,692,o),
(853,656,o),
(795,623,cs),
(218,296,l)
);
}
);
width = 1010;
}
);
metricLeft = e;
}
{
glyphname = f_f;
layers = (
{
layerId = m001;
shapes = (
{
attr = {
lineCapEnd = "2";
lineCapStart = "2";
strokeHeight = 180;
strokeWidth = 196;
};
closed = 0;
nodes = (
(298,0,l),
(298,742,ls),
(298,859,o),
(255,922,o),
(138,922,cs),
(27,922,l)
);
},
{
attr = {
lineCapEnd = "2";
lineCapStart = "2";
strokeHeight = 180;
strokeWidth = 196;
};
closed = 0;
nodes = (
(27,924,l),
(657,924,ls),
(769,924,o),
(820,839,o),
(819,742,cs),
(819,0,ls)
);
},
{
attr = {
lineCapEnd = "2";
lineCapStart = "2";
strokeHeight = 180;
strokeWidth = 196;
};
closed = 0;
nodes = (
(305,0,l),
(305,1144,ls),
(305,1262,o),
(396,1386,o),
(566,1386,cs),
(734,1386,o),
(818,1257,o),
(818,1144,cs),
(818,1069,l)
);
},
{
attr = {
lineCapStart = "2";
strokeHeight = 180;
strokeWidth = 196;
};
closed = 0;
nodes = (
(819,1069,l),
(819,1147,ls),
(819,1281,o),
(893,1400,o),
(1050,1400,cs),
(1304,1400,l)
);
},
{
attr = {
lineCapEnd = "2";
lineCapStart = "2";
strokeHeight = 180;
strokeWidth = 196;
};
closed = 0;
nodes = (
(820,0,l),
(820,742,ls),
(819,839,o),
(870,924,o),
(982,924,cs),
(1304,924,l)
);
}
);
width = 1339;
},
{
associatedMasterId = m001;
layerId = "89F4C101-9A61-4EB6-B610-57E6143BEE2B";
name = Stroke;
shapes = (
{
attr = {
lineCapStart = "2";
strokeHeight = 180;
strokeWidth = 196;
};
closed = 0;
nodes = (
(682,942,l),
(469,942,ls),
(382,942,o),
(324,873,o),
(324,788,cs),
(324,3,ls)
);
},
{
attr = {
lineCapEnd = "2";
lineCapStart = "2";
strokeHeight = 180;
strokeWidth = 196;
};
closed = 0;
nodes = (
(682,943,l),
(17,943,ls)
);
},
{
attr = {
lineCapStart = "2";
strokeHeight = 180;
strokeWidth = 196;
};
closed = 0;
nodes = (
(17,944,l),
(179,944,ls),
(270,944,o),
(324,1011,o),
(324,1098,cs),
(324,1143,ls),
(324,1278,o),
(393,1392,o),
(572,1392,cs),
(706,1392,l)
);
},
{
attr = {
lineCapStart = "2";
strokeHeight = 180;
strokeWidth = 196;
};
closed = 0;
nodes = (
(1303,942,l),
(1090,942,ls),
(1003,942,o),
(945,873,o),
(945,788,cs),
(945,3,ls)
);
},
{
attr = {
lineCapEnd = "2";
lineCapStart = "2";
strokeHeight = 180;
strokeWidth = 196;
};
closed = 0;
nodes = (
(1303,943,l),
(638,943,ls)
);
},
{
attr = {
lineCapStart = "2";
strokeHeight = 180;
strokeWidth = 196;
};
closed = 0;
nodes = (
(638,944,l),
(800,944,ls),
(891,944,o),
(945,1011,o),
(945,1098,cs),
(945,1143,ls),
(945,1278,o),
(1014,1392,o),
(1193,1392,cs),
(1327,1392,l)
);
}
);
visible = 1;
width = 1339;
}
);
}
{
glyphname = nine.dnom;
layers = (
{
layerId = m001;
shapes = (
{
closed = 1;
nodes = (
(44,626,o),
(217,772,o),
(361,772,qs),
(519,772,o),
(700,568,o),
(700,394,qs),
(700,189,o),
(515,-23,o),
(356,-23,qs),
(235,-23,o),
(79,89,o),
(58,189,q),
(233,189,l),
(264,113,o),
(361,113,qs),
(444,113,o),
(530,231,o),
(534,373,q),
(460,259,o),
(311,259,qs),
(193,259,o),
(44,395,o),
(44,504,qs)
);
},
{
closed = 1;
nodes = (
(216,455,o),
(293,390,o),
(433,390,o),
(510,455,o),
(510,512,qs),
(510,571,o),
(434,636,o),
(294,636,o),
(216,571,o),
(216,512,qs)
);
}
);
width = 749;
}
);
}
{
glyphname = o.caltInit;
layers = (
{
layerId = m001;
shapes = (
{
attr = {
lineCapEnd = 2;
lineCapStart = 2;
strokeHeight = 180;
strokeWidth = 196;
};
closed = 0;
nodes = (
(1203,16,l),
(1058,16,ls),
(849,16,o),
(720,22,o),
(501,44,cs),
(332,61,o),
(153,243,o),
(153,518,cs),
(153,748,o),
(316,949,o),
(557,949,cs),
(797,949,o),
(976,748,o),
(976,522,cs),
(976,368,o),
(858,-9,o),
(501,44,cs)
);
}
);
width = 1111;
},
{
associatedMasterId = m001;
layerId = "68F4E7FD-439F-4DA4-99C5-5E71A16BFC91";
name = Background;
shapes = (
{
attr = {
strokeHeight = 180;
strokeWidth = 196;
};
closed = 1;
nodes = (
(322,66,o),
(153,215,o),
(153,506,cs),
(153,785,o),
(316,949,o),
(557,949,cs),
(797,949,o),
(961,785,o),
(961,506,cs),
(961,215,o),
(791,66,o),
(557,66,cs)
);
}
);
visible = 1;
width = 1111;
}
);
}
{
glyphname = t_t_t.liga;
layers = (
{
layerId = m001;
shapes = (
{
attr = {
lineCapEnd = "2";
lineCapStart = "2";
strokeHeight = 180;
strokeWidth = 196;
};
closed = 0;
nodes = (
(27,922,l),
(175,922,ls),
(266,922,o),
(320,855,o),
(320,768,cs),
(320,337,ls),
(320,181,o),
(437,76,o),
(586,73,cs),
(738,73,o),
(838,189,o),
(838,337,cs),
(838,768,ls),
(838,855,o),
(784,922,o),
(693,922,cs),
(471,922,l)
);
},
{
attr = {
lineCapEnd = 2;
strokeHeight = 180;
strokeWidth = 196;
};
closed = 0;
nodes = (
(320,1312,l),
(320,1077,ls),
(320,992,o),
(262,923,o),
(175,923,cs),
(27,923,l)
);
},
{
attr = {
lineCapEnd = "2";
lineCapStart = 2;
strokeHeight = 180;
strokeWidth = 196;
};
closed = 0;
nodes = (
(838,1312,l),
(838,1077,ls),
(838,992,o),
(780,923,o),
(693,923,cs),
(545,923,l)
);
},
{
attr = {
lineCapEnd = "2";
lineCapStart = "2";
strokeHeight = 180;
strokeWidth = 196;
};
closed = 0;
nodes = (
(839,1312,l),
(839,337,ls),
(839,181,o),
(956,76,o),
(1105,73,cs),
(1257,73,o),
(1357,189,o),
(1357,337,cs),
(1357,928,l)
);
},
{
attr = {
lineCapEnd = "2";
lineCapStart = "2";
strokeHeight = 180;
strokeWidth = 196;
};
closed = 0;
nodes = (
(1824,73,l),
(1605,73,ls),
(1481,73,o),
(1358,202,o),
(1358,336,cs),
(1358,1308,l)
);
},
{
attr = {
lineCapEnd = "2";
lineCapStart = "2";
strokeHeight = 180;
strokeWidth = 196;
};
closed = 0;
nodes = (
(1353,1311,l),
(1353,1076,ls),
(1353,991,o),
(1295,922,o),
(1208,922,cs),
(999,922,l)
);
},
{
attr = {
lineCapEnd = "2";
strokeHeight = 180;
strokeWidth = 196;
};
closed = 0;
nodes = (
(1824,921,ls),
(999,921,l)
);
}
);
width = 1859;
},
{
associatedMasterId = m001;
layerId = "D0256651-FBF7-4DE8-96BB-CA71452ABFF6";
name = Background;
shapes = (
{
closed = 1;
nodes = (
(832,843,l),
(687,843,l),
(687,1014,l),
(832,1014,l),
(832,1310,l),
(1044,1310,l),
(1044,1014,l),
(1296,1014,l),
(1296,843,l),
(1044,843,l),
(1044,345,ls),
(1044,245,o),
(1115,168,o),
(1210,168,qs),
(1229,168,o),
(1274,171,o),
(1296,175,q),
(1296,0,l),
(1260,-6,o),
(1198,-13,o),
(1166,-13,qs),
(993,-13,o),
(832,144,o),
(832,316,qs)
);
},
{
closed = 1;
nodes = (
(427,843,l),
(427,345,ls),
(427,245,o),
(498,168,o),
(593,168,qs),
(612,168,o),
(656,171,o),
(679,175,q),
(679,0,l),
(643,-6,o),
(580,-13,o),
(549,-13,qs),
(375,-13,o),
(215,144,o),
(215,316,qs),
(215,843,l),
(25,843,l),
(25,1014,l),
(215,1014,l),
(215,1310,l),
(427,1310,l),
(427,1014,l),
(617,1014,l),
(617,843,l)
);
}
);
width = 1335;
}
);
}
{
glyphname = tildecomb.cap;
layers = (
{
layerId = m001;
shapes = (
{
closed = 1;
nodes = (
(-398,1534,l),
(-398,1674,o),
(-265,1837,o),
(-150,1837,qs),
(-84,1837,o),
(4,1782,o),
(44,1736,qs),
(76,1701,o),
(117,1673,o),
(140,1673,qs),
(222,1673,o),
(222,1816,q),
(398,1816,l),
(398,1675,o),
(265,1513,o),
(150,1513,qs),
(84,1513,o),
(-3,1568,o),
(-44,1613,qs),
(-75,1648,o),
(-117,1677,o),
(-140,1677,qs),
(-222,1677,o),
(-222,1534,q)
);
}
);
width = 0;
}
);
}
{
glyphname = uni0308.cap;
layers = (
{
layerId = m001;
shapes = (
{
closed = 1;
nodes = (
(-286,1784,o),
(-171,1784,o),
(-93,1706,o),
(-93,1591,o),
(-171,1513,o),
(-286,1513,o),
(-364,1591,o),
(-364,1706,o)
);
},
{
closed = 1;
nodes = (
(171,1784,o),
(286,1784,o),
(364,1706,o),
(364,1591,o),
(286,1513,o),
(171,1513,o),
(93,1591,o),
(93,1706,o)
);
}
);
width = 0;
}
);
}
{
glyphname = uni0315.short;
layers = (
{
layerId = m001;
shapes = (
{
closed = 1;
nodes = (
(285,1460,l),
(195,1124,l),
(25,1124,l),
(85,1460,l)
);
}
);
width = 0;
}
);
}
{
glyphname = uni0328.round;
layers = (
{
layerId = m001;
shapes = (
{
closed = 1;
nodes = (
(-216,-122,o),
(-45,48,o),
(127,116,q),
(143,72,l),
(54,2,o),
(-41,-124,o),
(-41,-195,qs),
(-41,-311,o),
(79,-311,qs),
(117,-311,o),
(156,-299,q),
(156,-429,l),
(131,-436,o),
(72,-445,o),
(39,-445,qs),
(-83,-445,o),
(-216,-329,o),
(-216,-232,qs)
);
}
);
width = 0;
}
);
}
